<svg version="1.1" id="Layer_1" xmlns="http://www.w3.org/2000/svg" xmlns:xlink="http://www.w3.org/1999/xlink" x="0px" y="0px"
	 width="100%" viewBox="0 0 200 200" enable-background="new 0 0 200 200" xml:space="preserve">
<path fill="#F3FAF9" opacity="1.000000" stroke="none" 
	d="
M118.000000,201.000000 
	C78.690948,201.000000 39.881901,201.000000 1.036424,201.000000 
	C1.036424,134.399323 1.036424,67.798615 1.036424,1.098956 
	C67.558884,1.098956 134.117950,1.098956 200.838516,1.098956 
	C200.838516,67.666351 200.838516,134.333145 200.838516,201.000000 
	C173.465561,201.000000 145.982788,201.000000 118.000000,201.000000 
M106.396828,168.087524 
	C85.420021,131.814468 64.442787,95.541641 43.466667,59.268181 
	C37.389721,48.759472 31.395309,38.201836 25.201328,27.762590 
	C22.756519,23.642145 18.570461,22.641737 14.957897,24.850040 
	C11.628366,26.885328 10.746819,30.852219 12.728881,34.955463 
	C13.017323,35.552589 13.378735,36.114742 13.711243,36.690273 
	C28.767487,62.750656 43.818226,88.814224 58.882866,114.869751 
	C71.533691,136.750381 84.193604,158.625778 96.865814,180.494019 
	C99.967613,185.846725 103.612747,187.357376 107.766418,185.104584 
	C111.964882,182.827484 112.482567,178.623657 109.260178,173.044266 
	C108.428253,171.603851 107.618156,170.150818 106.396828,168.087524 
M65.445160,73.089943 
	C70.446609,81.719566 75.404327,90.374947 80.467606,98.968140 
	C83.071693,103.387695 87.195511,104.748344 90.924088,102.637558 
	C94.599922,100.556641 95.530235,96.234200 92.994186,91.749405 
	C79.657715,68.164978 66.290535,44.597740 52.855785,21.069208 
	C50.026390,16.114033 46.034466,14.805367 42.150051,17.157454 
	C38.360329,19.452202 37.725235,23.653852 40.448559,28.518047 
	C48.650509,43.167744 56.857506,57.814617 65.445160,73.089943 
M126.565269,153.962189 
	C126.107201,151.919159 126.100227,149.622833 125.118172,147.874039 
	C118.528831,136.140106 111.775162,124.497429 104.981186,112.879898 
	C102.319176,108.327927 98.378426,107.009415 94.568649,109.101341 
	C90.589279,111.286400 89.804016,115.426796 92.616936,120.322487 
	C99.239815,131.849152 105.900558,143.354401 112.611130,154.830231 
	C116.485176,161.455292 122.349915,161.355072 126.565269,153.962189 
M142.367661,47.648582 
	C147.676315,56.873520 152.936081,66.127083 158.313492,75.311752 
	C161.157990,80.170181 165.176315,81.481529 169.078781,79.074547 
	C172.724274,76.826065 173.491287,72.733536 170.881668,68.132622 
	C165.958954,59.453590 160.915054,50.843300 155.922302,42.203976 
	C153.835449,38.592869 151.126465,36.062809 146.606506,37.667267 
	C142.215744,39.225868 141.115662,42.611198 142.367661,47.648582 
M176.641434,50.883015 
	C180.063232,55.188118 183.735046,56.211597 187.190689,53.823509 
	C190.606155,51.463196 191.194031,47.290051 188.612228,42.760838 
	C184.919189,36.282154 181.162491,29.839460 177.394379,23.403994 
	C174.905716,19.153677 170.497955,17.388767 167.042786,19.181345 
	C163.336151,21.104385 162.303345,25.932949 164.832474,30.445312 
	C168.559113,37.094208 172.424591,43.665279 176.641434,50.883015 
M149.176682,84.283264 
	C147.608673,81.548920 146.092255,78.783356 144.460876,76.087349 
	C141.827637,71.735672 137.767273,70.372871 134.027435,72.496490 
	C130.307068,74.609047 129.381210,78.878784 131.879425,83.303864 
	C135.468079,89.660423 139.134598,95.974609 142.868256,102.247147 
	C145.256042,106.258636 149.374741,107.536316 152.996368,105.590637 
	C156.579086,103.665840 157.715286,99.354797 155.528961,95.254784 
	C153.656448,91.743271 151.568420,88.346672 149.176682,84.283264 
M140.194916,130.655243 
	C142.589874,127.683243 142.490753,124.633141 140.611984,121.434021 
	C136.917419,115.142990 133.358871,108.771072 129.601639,102.518181 
	C126.946556,98.099503 122.847244,96.917252 119.129547,99.231201 
	C115.635773,101.405754 114.728615,105.551010 117.062981,109.707436 
	C120.634933,116.067436 124.294060,122.380272 128.019974,128.651459 
	C130.980911,133.635071 134.321030,134.311310 140.194916,130.655243 
z"/>
<path fill="#0B2F5B" opacity="1.000000" stroke="none" 
	d="
M106.597427,168.395569 
	C107.618156,170.150818 108.428253,171.603851 109.260178,173.044266 
	C112.482567,178.623657 111.964882,182.827484 107.766418,185.104584 
	C103.612747,187.357376 99.967613,185.846725 96.865814,180.494019 
	C84.193604,158.625778 71.533691,136.750381 58.882866,114.869751 
	C43.818226,88.814224 28.767487,62.750656 13.711243,36.690273 
	C13.378735,36.114742 13.017323,35.552589 12.728881,34.955463 
	C10.746819,30.852219 11.628366,26.885328 14.957897,24.850040 
	C18.570461,22.641737 22.756519,23.642145 25.201328,27.762590 
	C31.395309,38.201836 37.389721,48.759472 43.466667,59.268181 
	C64.442787,95.541641 85.420021,131.814468 106.597427,168.395569 
z"/>
<path fill="#0B2F5B" opacity="1.000000" stroke="none" 
	d="
M65.253845,72.776268 
	C56.857506,57.814617 48.650509,43.167744 40.448559,28.518047 
	C37.725235,23.653852 38.360329,19.452202 42.150051,17.157454 
	C46.034466,14.805367 50.026390,16.114033 52.855785,21.069208 
	C66.290535,44.597740 79.657715,68.164978 92.994186,91.749405 
	C95.530235,96.234200 94.599922,100.556641 90.924088,102.637558 
	C87.195511,104.748344 83.071693,103.387695 80.467606,98.968140 
	C75.404327,90.374947 70.446609,81.719566 65.253845,72.776268 
z"/>
<path fill="#0C305B" opacity="1.000000" stroke="none" 
	d="
M126.440216,154.320923 
	C122.349915,161.355072 116.485176,161.455292 112.611130,154.830231 
	C105.900558,143.354401 99.239815,131.849152 92.616936,120.322487 
	C89.804016,115.426796 90.589279,111.286400 94.568649,109.101341 
	C98.378426,107.009415 102.319176,108.327927 104.981186,112.879898 
	C111.775162,124.497429 118.528831,136.140106 125.118172,147.874039 
	C126.100227,149.622833 126.107201,151.919159 126.440216,154.320923 
z"/>
<path fill="#0C2F5B" opacity="1.000000" stroke="none" 
	d="
M142.212952,47.275276 
	C141.115662,42.611198 142.215744,39.225868 146.606506,37.667267 
	C151.126465,36.062809 153.835449,38.592869 155.922302,42.203976 
	C160.915054,50.843300 165.958954,59.453590 170.881668,68.132622 
	C173.491287,72.733536 172.724274,76.826065 169.078781,79.074547 
	C165.176315,81.481529 161.157990,80.170181 158.313492,75.311752 
	C152.936081,66.127083 147.676315,56.873520 142.212952,47.275276 
z"/>
<path fill="#0C2F5B" opacity="1.000000" stroke="none" 
	d="
M176.436188,50.576256 
	C172.424591,43.665279 168.559113,37.094208 164.832474,30.445312 
	C162.303345,25.932949 163.336151,21.104385 167.042786,19.181345 
	C170.497955,17.388767 174.905716,19.153677 177.394379,23.403994 
	C181.162491,29.839460 184.919189,36.282154 188.612228,42.760838 
	C191.194031,47.290051 190.606155,51.463196 187.190689,53.823509 
	C183.735046,56.211597 180.063232,55.188118 176.436188,50.576256 
z"/>
<path fill="#0C305B" opacity="1.000000" stroke="none" 
	d="
M149.376205,84.591255 
	C151.568420,88.346672 153.656448,91.743271 155.528961,95.254784 
	C157.715286,99.354797 156.579086,103.665840 152.996368,105.590637 
	C149.374741,107.536316 145.256042,106.258636 142.868256,102.247147 
	C139.134598,95.974609 135.468079,89.660423 131.879425,83.303864 
	C129.381210,78.878784 130.307068,74.609047 134.027435,72.496490 
	C137.767273,70.372871 141.827637,71.735672 144.460876,76.087349 
	C146.092255,78.783356 147.608673,81.548920 149.376205,84.591255 
z"/>
<path fill="#0C2F5A" opacity="1.000000" stroke="none" 
	d="
M139.916000,130.934052 
	C134.321030,134.311310 130.980911,133.635071 128.019974,128.651459 
	C124.294060,122.380272 120.634933,116.067436 117.062981,109.707436 
	C114.728615,105.551010 115.635773,101.405754 119.129547,99.231201 
	C122.847244,96.917252 126.946556,98.099503 129.601639,102.518181 
	C133.358871,108.771072 136.917419,115.142990 140.611984,121.434021 
	C142.490753,124.633141 142.589874,127.683243 139.916000,130.934052 
z"/>
</svg>